# xmcd
#
# Track frame offsets:
#	150
#	20004
#	36144
#	66266
#	86908
#	102926
#	117391
#	135978
#	156399
#	176021
#	198503
#	219883
#	242092
#	265338
#	283468
#	306064
#
# Disc length: 4379 seconds
#
# Revision: 0
# Processed by: cddbd v1.5.2PL0 Copyright (c) Steve Scherf et al.
# Submitted via: EasyCDDAExtractor 15.2.0.1
#
DISCID=ef111910
DTITLE=Elaine De Jesus - E Demais
DYEAR=2010
DGENRE=Gospel
TTITLE0=E Demais
TTITLE1=Abra O Coracao
TTITLE2=Terremoto De Gloria
TTITLE3=Perola
TTITLE4=Homem Dos Milagres
TTITLE5=Deus Abre O Ceu
TTITLE6=Ate O Fim
TTITLE7=Insaciavel Adoracao
TTITLE8=A Hora Do Milagre
TTITLE9=Na Uncao De Deus
TTITLE10=Ouvi Dizer
TTITLE11=Quem Chora Pra Deus
TTITLE12=Adoracao A Trindade
TTITLE13=Esperanca Linda
TTITLE14=Cidade De Deus
TTITLE15=Somos Campeoes
EXTD=
EXTT0=
EXTT1=
EXTT2=
EXTT3=
EXTT4=
EXTT5=
EXTT6=
EXTT7=
EXTT8=
EXTT9=
EXTT10=
EXTT11=
EXTT12=
EXTT13=
EXTT14=
EXTT15=
PLAYORDER=
